#!OML:ASF F:\VICON\USERDATA\INSTALL\rory3\rory3.ASF
:FULLY-SPECIFIED
:DEGREES
404
root 0.498789 15.7668 -4.439 -19.2001 -32.7257 5.39511
lowerback 17.7665 1.68018 -3.23489
upperback 9.20413 1.52619 0.977976
thorax -0.207021 0.546735 2.592
lowerneck -14.92 5.14442 -9.90657
upperneck 36.7179 10.9212 -0.960412
head 14.8679 2.99247 3.05016
rclavicle 4.62174e-014 2.38542e-014
rhumerus -10.237 18.2331 -76.0215
rradius 58.2774
rwrist 33.6214
rhand -20.822 8.30277
rfingers 7.12502
rthumb 5.54622 -21.6046
lclavicle 4.62174e-014 2.38542e-014
lhumerus -9.77656 -28.9946 83.077
lradius 50.6146
lwrist -15.1274
lhand -21.3219 17.7871
lfingers 7.12502
lthumb 5.06358 47.7066
rfemur -54.9096 -25.6674 18.4349
rtibia 106.412
rfoot 10.804 -6.45576
rtoes 7.74001
lfemur -50.9608 27.7408 -21.6054
ltibia 102.17
lfoot 11.5659 -4.15588
ltoes -15.8785
405
root 0.4956 15.7634 -4.44277 -19.1601 -32.6474 5.29674
lowerback 17.8293 1.69455 -3.16082
upperback 9.16955 1.55558 0.994578
thorax -0.277583 0.565745 2.56101
lowerneck -15.0912 5.09785 -9.8304
upperneck 36.5315 10.8421 -0.953675
head 14.8246 2.98257 3.03139
rclavicle 3.06128e-014 -3.4191e-014
rhumerus -10.2228 18.4781 -76.3642
rradius 57.3984
rwrist 33.3294
rhand -21.1233 8.31542
rfingers 7.12502
rthumb 5.25525 -21.5994
lclavicle 3.06128e-014 -3.4191e-014
lhumerus -9.88905 -29.4121 83.3309
lradius 50.3193
lwrist -15.2918
lhand -20.8578 17.4007
lfingers 7.12502
lthumb 5.51162 47.309
rfemur -54.5736 -26.2188 18.7474
rtibia 106.364
rfoot 10.2352 -6.19248
rtoes 6.38835
lfemur -50.9787 27.8325 -21.4611
ltibia 102.698
lfoot 11.9363 -4.2146
ltoes -14.6179
406
root 0.490787 15.7619 -4.44103 -19.0844 -32.6649 5.32638
lowerback 17.6647 1.7609 -3.11018
upperback 9.21793 1.65555 0.949246
thorax -0.145615 0.616121 2.46985
lowerneck -15.3933 5.00678 -9.85526
upperneck 36.2979 10.6835 -0.779815
head 14.7704 2.95113 3.08918
rclavicle -4.42296e-014 1.66979e-014
rhumerus -10.1453 18.6474 -76.6839
rradius 56.6034
rwrist 33.1433
rhand -20.9812 8.28875
rfingers 7.12502
rthumb 5.39248 -21.6226
lclavicle -4.42296e-014 1.66979e-014
lhumerus -9.84102 -29.9033 83.5023
lradius 50.0664
lwrist -15.1266
lhand -20.5132 17.3141
lfingers 7.12502
lthumb 5.8444 47.2135
rfemur -54.3807 -26.5593 18.9644
rtibia 106.308
rfoot 9.7946 -5.9117
rtoes 5.59445
lfemur -51.0709 28.0501 -21.4631
ltibia 103.206
lfoot 12.2279 -4.32798
ltoes -13.9954
407
root 0.485629 15.7599 -4.44233 -19.0207 -32.6843 5.33889
lowerback 17.5659 1.85623 -3.09692
upperback 9.29463 1.78585 0.966095
thorax -0.0211205 0.678233 2.4599
lowerneck -15.8131 4.9153 -9.83841
upperneck 36.0853 10.5567 -0.667466
head 14.761 2.92541 3.12643
rclavicle 7.8023e-014 1.03368e-014
rhumerus -10.0482 18.9617 -76.8384
rradius 55.9003
rwrist 32.8578
rhand -20.3287 8.26774
rfingers 7.12502
rthumb 6.0225 -21.6267
lclavicle 7.8023e-014 1.03368e-014
lhumerus -9.72464 -30.3495 83.7479
lradius 49.8134
lwrist -15.0563
lhand -20.3202 17.2412
lfingers 7.12502
lthumb 6.0307 47.1353
rfemur -54.1918 -26.8552 19.0796
rtibia 106.283
rfoot 9.30621 -5.51798
rtoes 5.76396
lfemur -51.1595 28.2866 -21.4499
ltibia 103.702
lfoot 12.2046 -4.46116
ltoes -14.9891
408
root 0.480394 15.7658 -4.44622 -19.0032 -32.7176 5.31971
lowerback 17.5545 1.93367 -3.10456
upperback 9.30692 1.88756 1.00507
thorax -0.010076 0.727775 2.4879
lowerneck -16.0124 4.92063 -9.6493
upperneck 35.8714 10.5565 -0.758986
head 14.7231 2.95127 3.06163
rclavicle 2.23633e-014 -1.51076e-014
rhumerus -10.1388 19.3537 -77.0592
rradius 55.2571
rwrist 32.657
rhand -19.8742 8.11568
rfingers 7.12502
rthumb 6.46129 -21.7658
lclavicle 2.23633e-014 -1.51076e-014
lhumerus -9.80766 -30.6657 84.0615
lradius 49.6156
lwrist -15.3767
lhand -20.1009 17.236
lfingers 7.12502
lthumb 6.24237 47.1241
rfemur -53.8631 -27.1717 19.1799
rtibia 106.159
rfoot 8.87304 -4.87457
rtoes 5.97764
lfemur -51.2116 28.4852 -21.3084
ltibia 104.161
lfoot 12.3533 -4.51476
ltoes -14.7465
409
root 0.473581 15.7779 -4.45125 -18.9933 -32.6968 5.33349
lowerback 17.5535 1.97877 -3.16936
upperback 9.22727 1.93902 0.997724
thorax -0.0997096 0.755209 2.5066
lowerneck -15.842 4.97287 -9.54303
upperneck 35.5068 10.5396 -0.748396
head 14.5164 2.99507 3.02522
rclavicle -1.22253e-014 1.82882e-014
rhumerus -10.472 19.7488 -77.4481
rradius 54.6167
rwrist 32.6038
rhand -19.8006 7.81081
rfingers 7.12502
rthumb 6.53235 -22.0684
lclavicle -1.22253e-014 1.82882e-014
lhumerus -10.2049 -30.6239 84.4847
lradius 49.5386
lwrist -16.0425
lhand -19.8726 17.342
lfingers 7.12502
lthumb 6.46284 47.2234
rfemur -53.4978 -27.5326 19.2449
rtibia 105.937
rfoot 8.40724 -4.21132
rtoes 5.98493
lfemur -51.2867 28.5915 -21.1632
ltibia 104.569
lfoot 12.8938 -4.4262
ltoes -12.8675
410
root 0.465141 15.781 -4.45351 -18.9654 -32.6604 5.35523
lowerback 17.602 2.02047 -3.2717
upperback 9.08068 1.97926 0.978284
thorax -0.286459 0.77927 2.53363
lowerneck -15.5246 5.01916 -9.45483
upperneck 35.1201 10.4854 -0.711825
head 14.2675 3.02863 2.98871
rclavicle 4.35338e-014 -3.18055e-014
rhumerus -10.9626 20.1211 -77.9181
rradius 54.0112
rwrist 32.6012
rhand -19.6005 7.49437
rfingers 7.12502
rthumb 6.72553 -22.3788
lclavicle 4.35338e-014 -3.18055e-014
lhumerus -10.8357 -30.2419 85.0211
lradius 49.6095
lwrist -17.0356
lhand -19.7107 17.0135
lfingers 7.12502
lthumb 6.61908 46.89
rfemur -53.2245 -27.8908 19.3977
rtibia 105.682
rfoot 7.9414 -3.49555
rtoes 4.63544
lfemur -51.3742 28.763 -21.079
ltibia 105.023
lfoot 13.1543 -4.5047
ltoes -12.1738
